{
  "title": "Tomorrowland.2015.720p.WEBRip.x264.ACC2.0-RARBG",
  "uid": 12450193,
  "size": 2617750303,
  "categoryP": "video",
  "categoryS": "movies",
  "magnet": "?xt=urn:btih:464e6c36b095a608a296025dca3e4016d0ba6a71&amp;dn=Tomorrowland.2015.720p.WEBRip.x264.ACC2.0-RARBG&amp;tr=udp%3A%2F%2Ftracker.openbittorrent.com%3A80&amp;tr=udp%3A%2F%2Fopen.demonii.com%3A1337&amp;tr=udp%3A%2F%2Ftracker.coppersurfer.tk%3A6969&amp;tr=udp%3A%2F%2Fexodus.desync.com%3A6969",
  "seeders": 48,
  "leechers": 8,
  "uploader": "vickey1992",
  "files": 4,
  "time": 1442672744,
  "description": "Video\nID                                       : 1\nFormat                                   : AVC\nFormat/Info                              : Advanced Video Codec\nFormat profile                           : &lt;a class=&quot;__cf_email__&quot; href=&quot;/cdn-cgi/l/email-protection&quot; data-cfemail=&quot;3d75545a557d710e130c&quot;&gt;[email&amp;#160;protected]&lt;/a&gt;&lt;script data-cfhash='f9e31' type=&quot;text/javascript&quot;&gt;\n/* &lt;![CDATA[ */!function(){try{var t=&quot;currentScript&quot;in document?document.currentScript:function(){for(var t=document.getElementsByTagName(&quot;script&quot;),e=t.length;e--;)if(t[e].getAttribute(&quot;data-cfhash&quot;))return t[e]}();if(t&amp;&amp;t.previousSibling){var e,r,n,i,c=t.previousSibling,a=c.getAttribute(&quot;data-cfemail&quot;);if(a){for(e=&quot;&quot;,r=parseInt(a.substr(0,2),16),n=2;a.length-n;n+=2)i=parseInt(a.substr(n,2),16)^r,e+=String.fromCharCode(i);e=document.createTextNode(e),c.parentNode.replaceChild(e,c)}t.parentNode.removeChild(t);}}catch(u){}}()/* ]]&gt; */&lt;/script&gt;\nFormat settings, CABAC                   : Yes\nFormat settings, ReFrames                : 4 frames\nCodec ID                                 : avc1\nCodec ID/Info                            : Advanced Video Coding\nDuration                                 : 2h 10mn\nBit rate                                 : 2 449 Kbps\nWidth                                    : 1 280 pixels\nHeight                                   : 580 pixels\nDisplay aspect ratio                     : 2.2:1\nFrame rate mode                          : Constant\nFrame rate                               : 30.000 fps\nColor space                              : YUV\nChroma subsampling                       : 4:2:0\nBit depth                                : 8 bits\nScan type                                : Progressive\nBits/(Pixel*Frame)                       : 0.110\nStream size                              : 2.22 GiB (91%)\nTitle                                    : Tomorrowland.2015.720p.WEBRip.x264.ACC2.0-RARBG\nWriting library                          : x264 core 148 r2597M e86f3a1\nEncoding settings                        : cabac=1 / ref=4 / deblock=1:0:0 / analyse=0x3:0x113 / me=hex / subme=6 / psy=1 / psy_rd=1.00:0.00 / mixed_ref=1 / me_range=16 / chroma_me=1 / trellis=1 / 8x8dct=1 / cqm=0 / deadzone=21,11 / fast_pskip=1 / chroma_qp_offset=-2 / threads=40 / lookahead_threads=8 / sliced_threads=0 / nr=0 / decimate=1 / interlaced=0 / bluray_compat=0 / constrained_intra=0 / bframes=3 / b_pyramid=2 / b_adapt=1 / b_bias=0 / direct=1 / weightb=1 / open_gop=0 / weightp=1 / keyint=250 / keyint_min=25 / scenecut=40 / intra_refresh=0 / rc_lookahead=30 / rc=crf / mbtree=1 / crf=18.0 / qcomp=0.60 / qpmin=0 / qpmax=69 / qpstep=4 / ip_ratio=1.40 / aq=1:1.00\nLanguage                                 : English\n\nAudio\nID                                       : 2\nFormat                                   : AAC\nFormat/Info                              : Advanced Audio Codec\nFormat profile                           : LC\nCodec ID                                 : 40\nDuration                                 : 2h 10mn\nBit rate mode                            : Constant\nBit rate                                 : 224 Kbps\nChannel(s)                               : 2 channels\nChannel positions                        : Front: L R\nSampling rate                            : 44.1 KHz\nCompression mode                         : Lossy\nStream size                              : 208 MiB (8%)\nTitle                                    : Tomorrowland.2015.720p.WEBRip.x264.ACC2.0-RARBG\nLanguage                                 : English",
  "parsed": {
    "xt": "urn:btih:464e6c36b095a608a296025dca3e4016d0ba6a71",
    "dn": "Tomorrowland.2015.720p.WEBRip.x264.ACC2.0-RARBG",
    "tr": [
      "udp://exodus.desync.com:6969",
      "udp://open.demonii.com:1337",
      "udp://tracker.coppersurfer.tk:6969",
      "udp://tracker.openbittorrent.com:80"
    ],
    "infoHash": "464e6c36b095a608a296025dca3e4016d0ba6a71",
    "infoHashBuffer": {
      "type": "Buffer",
      "data": [
        70,
        78,
        108,
        54,
        176,
        149,
        166,
        8,
        162,
        150,
        2,
        93,
        202,
        62,
        64,
        22,
        208,
        186,
        106,
        113
      ]
    },
    "name": "Tomorrowland.2015.720p.WEBRip.x264.ACC2.0-RARBG",
    "announce": [
      "udp://exodus.desync.com:6969",
      "udp://open.demonii.com:1337",
      "udp://tracker.coppersurfer.tk:6969",
      "udp://tracker.openbittorrent.com:80"
    ],
    "urlList": []
  },
  "previous": 56,
  "peers": 9,
  "last_updated": "2016-12-24T23:48:55.025Z"
}